<svg id="_x33_0" enable-background="new 0 0 64 64" height="512" viewBox="0 0 64 64" width="512" xmlns="http://www.w3.org/2000/svg"><g><path d="m33 15c0 .551-.449 1-1 1s-1-.449-1-1h-2c0 1.654 1.346 3 3 3s3-1.346 3-3z"/><path d="m61 9h-2c-1.103 0-2 .897-2 2h-14c0-1.103-.897-2-2-2h-2c-1.103 0-2 .897-2 2v.631c-.132-.272-.264-.536-.397-.788.871-1.041 1.397-2.381 1.397-3.843 0-1.603-.624-3.109-1.757-4.243-1.133-1.133-2.64-1.757-4.243-1.757h-9c-6.617 0-12 5.383-12 12v2.761c0 9.771-2.865 19.233-8.285 27.364-1.122 1.682-1.715 3.641-1.715 5.664 0 5.63 4.581 10.211 10.211 10.211h2.613c-.229.903-.479 1.801-.773 2.684l-.439 1.316h10.388 8 8.387l-.438-1.316c-1.293-3.879-1.949-7.92-1.949-12.009v-1.373l.585-.878c.926-1.387 1.415-3.003 1.415-4.672 0-1.295-.306-2.592-.883-3.752h10.883c3.309 0 6-2.691 6-6v-14h2c0 1.103.897 2 2 2h2c1.103 0 2-.897 2-2v-8c0-1.103-.897-2-2-2zm-18 10h2.654c.105.145.218.286.346.414l1 1v9.529l-15.055-.836c-.53-.03-.945-.469-.945-.999v-1.108c3.094 0 5.649-2.354 5.967-5.365l1.458-.729c.183.055.374.094.575.094h2c1.103 0 2-.897 2-2zm-4-8 2-.001v8.001h-2zm-4 9.382v.618c0 .347-.058.678-.142 1h-1.622c-.998 0-1.895-.555-2.341-1.447l-1.789.895c.788 1.575 2.37 2.553 4.13 2.553h.382c-.703.615-1.612 1-2.618 1h-4v2h2v1.108c0 1.262.788 2.339 1.904 2.78-.425 2.326-2.469 4.111-4.904 4.111-2.421 0-4.463-1.773-4.9-4.086 1.112-.444 1.9-1.524 1.9-2.777v-13.43c0-1.117.369-2.18 1.034-3.044.731.815 1.78 1.337 2.958 1.337h5.013c1.108 0 2.144-.308 3.036-.835.781 1.528 1.827 4.009 1.948 7.223zm-22-4.621v-2.761c0-5.514 4.486-10 10-10h9c1.069 0 2.073.416 2.829 1.172s1.171 1.761 1.171 2.83c0 2.205-1.792 3.998-3.995 3.998h-5.013c-1.098 0-1.992-.895-1.992-2 0-1.103.897-2 2-2v-2c-2.206 0-4 1.794-4 4.006 0 .252.03.496.074.735-1.322 1.31-2.074 3.083-2.074 4.967v13.43c0 .522-.408.96-.929.998l-4.712.336c-1.781.128-3.414.778-4.756 1.791 1.578-4.98 2.397-10.196 2.397-15.502zm1.174 31.239h-3.174v2h11.414l1.586-1.586c.263-.263.628-.414 1-.414.551 0 1 .449 1 1v1h1c1.103 0 2 .897 2 2s-.897 2-2 2h-14c-2.206 0-4-1.794-4-4v-10.551c0-3.484 2.598-6.429 6-6.921v4.056c0 .772-.183 1.545-.528 2.236l-.583 1.166c-.581 1.163-.889 2.466-.889 3.766 0 1.505.418 2.958 1.174 4.248zm10.826 10v-2h2c.732 0 1.409-.212 2-.556v2.556zm-2-16v-2h8l.001 2zm2 2h4v4.546c-.351-.204-.732-.363-1.14-.453-.385-1.212-1.522-2.093-2.86-2.093zm-13.789 14c-4.527 0-8.211-3.684-8.211-8.211 0-1.627.477-3.202 1.379-4.555.952-1.428 1.822-2.899 2.621-4.401v9.167c0 3.309 2.691 6 6 6h1.612c-.095.67-.208 1.336-.338 2zm4.151 4c.579-1.962.999-3.973 1.271-6h6.367v2c-1.103 0-2 .897-2 2v2zm7.638 0v-2h8v2zm10 0v-2c0-1.103-.897-2-2-2v-8h4v.675c0 3.844.55 7.647 1.638 11.325zm2.921-14.685-.456.685h-4.465v-4c1.103 0 2-.897 2-2v-2c0-1.103-.897-2-2-2h-5-3c-1.103 0-2 .897-2 2v2c0 1.103.897 2 2 2v2.659c-.144.105-.286.212-.414.341l-1 1h-5.051l-.456-.685c-.706-1.058-1.079-2.29-1.079-3.563 0-.992.234-1.985.678-2.873l.583-1.166c.484-.966.739-2.048.739-3.13v-4.223l2.115-.151c.581 3.273 3.47 5.791 6.885 5.791 3.438 0 6.333-2.539 6.894-5.838l2.106.117v4.304c0 1.081.255 2.164.739 3.131l.583 1.166c.444.888.678 1.881.678 2.872 0 1.273-.373 2.505-1.079 3.563zm17.079-13.315c0 2.206-1.794 4-4 4h-11.786c-.136-.46-.214-.937-.214-1.417v-4.193l10.738.596 1.815.908.895-1.789-1.448-.723v-10.796l-.586-.586h4.586zm-10-16v-4h14v4zm18 2h-2v-8h2z"/></g></svg>