<svg id="_x33_0" enable-background="new 0 0 64 64" height="512" viewBox="0 0 64 64" width="512" xmlns="http://www.w3.org/2000/svg" xmlns:xlink="http://www.w3.org/1999/xlink"><linearGradient id="SVGID_1_" gradientUnits="userSpaceOnUse" x1="32" x2="32" y1="63" y2="1"><stop offset="0" stop-color="#9f2fff"/><stop offset="1" stop-color="#0bb1d3"/></linearGradient><path d="m35 15c0 1.654-1.346 3-3 3s-3-1.346-3-3h2c0 .551.449 1 1 1s1-.449 1-1zm28-4v8c0 1.103-.897 2-2 2h-2c-1.103 0-2-.897-2-2h-2v14c0 3.309-2.691 6-6 6h-10.883c.577 1.16.883 2.457.883 3.752 0 1.669-.489 3.285-1.415 4.672l-.585.879v1.373c0 4.089.656 8.129 1.949 12.008l.438 1.316h-8.387-8-10.388l.439-1.316c.294-.883.544-1.78.773-2.684h-2.613c-5.63 0-10.211-4.581-10.211-10.211 0-2.023.593-3.982 1.715-5.664 5.42-8.131 8.285-17.593 8.285-27.364v-2.761c0-6.617 5.383-12 12-12h9c1.603 0 3.11.624 4.243 1.757 1.133 1.134 1.757 2.641 1.757 4.243 0 1.461-.526 2.801-1.397 3.843.133.252.265.516.397.788v-.631c0-1.103.897-2 2-2h2c1.103 0 2 .897 2 2h14c0-1.103.897-2 2-2h2c1.103 0 2 .897 2 2zm-22 10h-2c-.201 0-.392-.039-.575-.094l-1.458.729c-.318 3.011-2.873 5.365-5.967 5.365v1.108c0 .53.415.969.945.999l15.055.836v-9.529l-1-1c-.128-.128-.241-.269-.346-.414h-2.654c0 1.103-.897 2-2 2zm-2-2h2v-8.001l-2 .001zm-2.012.388c-.121-3.214-1.166-5.694-1.948-7.223-.891.527-1.927.835-3.035.835h-5.013c-1.177 0-2.226-.522-2.958-1.336-.665.864-1.034 1.927-1.034 3.044v13.43c0 1.252-.788 2.332-1.9 2.777.437 2.312 2.479 4.085 4.9 4.085 2.435 0 4.479-1.785 4.904-4.112-1.116-.441-1.904-1.518-1.904-2.78v-1.108h-2v-2h4c1.005 0 1.914-.385 2.618-1h-.382c-1.76 0-3.343-.978-4.13-2.553l1.789-.895c.446.893 1.343 1.448 2.341 1.448h1.622c.084-.322.142-.653.142-1v-.618zm-26.385 11.875c1.342-1.013 2.975-1.664 4.756-1.791l4.712-.336c.521-.038.929-.476.929-.998v-13.43c0-1.884.752-3.657 2.074-4.967-.044-.239-.074-.483-.074-.735 0-2.212 1.794-4.006 4-4.006v2c-1.103 0-2 .897-2 2 0 1.105.894 2 1.992 2h5.013c2.203 0 3.995-1.793 3.995-3.998 0-1.069-.416-2.074-1.171-2.83s-1.76-1.172-2.829-1.172h-9c-5.514 0-10 4.486-10 10v2.761c0 5.306-.819 10.522-2.397 15.502zm2.397 11.489c0-1.3.308-2.603.889-3.767l.583-1.166c.345-.69.528-1.464.528-2.236v-4.056c-3.402.493-6 3.437-6 6.921v10.552c0 2.206 1.794 4 4 4h14c1.103 0 2-.897 2-2s-.897-2-2-2h-1v-1c0-.551-.449-1-1-1-.372 0-.737.151-1 .414l-1.586 1.586h-11.414v-2h3.174c-.756-1.29-1.174-2.743-1.174-4.248zm16 14.248v-2.556c-.591.344-1.268.556-2 .556h-2v2zm2.001-16-.001-2h-8v2zm-6.001 4c1.338 0 2.475.881 2.86 2.093.408.09.789.249 1.14.453v-4.546h-4zm-10.726 12c.131-.664.243-1.33.338-2h-1.612c-3.309 0-6-2.691-6-6v-9.167c-.799 1.502-1.669 2.973-2.621 4.401-.902 1.353-1.379 2.928-1.379 4.555 0 4.527 3.684 8.211 8.211 8.211zm6.726 4v-2c0-1.103.897-2 2-2v-2h-6.366c-.273 2.027-.692 4.038-1.271 6zm10 0v-2h-8v2zm5.638 0c-1.088-3.678-1.638-7.481-1.638-11.325v-.675h-4v8c1.103 0 2 .897 2 2v2zm.362-18.248c0-.992-.234-1.985-.678-2.873l-.583-1.166c-.484-.966-.739-2.048-.739-3.13v-4.304l-2.106-.117c-.561 3.299-3.456 5.838-6.894 5.838-3.415 0-6.304-2.518-6.885-5.791l-2.115.151v4.224c0 1.081-.255 2.164-.739 3.13l-.583 1.166c-.444.888-.678 1.881-.678 2.872 0 1.272.373 2.505 1.079 3.563l.456.685h5.051l1-1c.128-.128.27-.236.414-.341v-2.659c-1.103 0-2-.897-2-2v-2c0-1.103.897-2 2-2h3 5c1.103 0 2 .897 2 2v2c0 1.103-.897 2-2 2v4h4.465l.456-.685c.706-1.058 1.079-2.29 1.079-3.563zm16-23.752h-4.586l.586.586v10.796l1.447.724-.895 1.789-1.815-.908-10.737-.596v4.193c0 .479.078.956.214 1.417h11.786c2.206 0 4-1.794 4-4zm4-2v-4h-14v4zm4-6h-2v8h2z" fill="url(#SVGID_1_)"/></svg>