<svg id="Capa_1" enable-background="new 0 0 512 512" height="512" viewBox="0 0 512 512" width="512" xmlns="http://www.w3.org/2000/svg"><g><g><path d="m437 230c-8.284 0-15-6.716-15-15v-140c0-8.284 6.716-15 15-15s15 6.716 15 15v140c0 8.284-6.716 15-15 15z" fill="#453d81"/><path d="m452 215v-140c0-8.284-6.716-15-15-15v170c8.284 0 15-6.716 15-15z" fill="#2e2654"/><path d="m362 220v55c0 8.284 6.716 15 15 15h120c8.284 0 15-6.716 15-15v-55c0-8.284-6.716-15-15-15h-120c-8.284 0-15 6.716-15 15z" fill="#fff5f5"/><path d="m497 205h-60v85h60c8.284 0 15-6.716 15-15v-55c0-8.284-6.716-15-15-15z" fill="#e1ebf0"/><path d="m497 0h-120c-8.284 0-15 6.716-15 15v55c0 8.284 6.716 15 15 15h120c8.284 0 15-6.716 15-15v-55c0-8.284-6.716-15-15-15z" fill="#fff5f5"/><path d="m497 0h-60v85h60c8.284 0 15-6.716 15-15v-55c0-8.284-6.716-15-15-15z" fill="#e1ebf0"/></g><g><g><path d="m320 512h45c8.284 0 15-6.716 15-15v-67c0-47.28-34.719-86.598-80-93.812l-105 20.812-105-20.812c-45.281 7.214-80 46.532-80 93.812v67c0 8.284 6.716 15 15 15h45l125-20z" fill="#ffcbbc"/><path d="m320 512h45c8.284 0 15-6.716 15-15v-67c0-47.28-34.719-86.598-80-93.812l-105 20.812v135z" fill="#f9a58b"/><path d="m318.418 443.295c-12.112-24.224-18.418-50.939-18.418-78.022 0-15.335 0-29.085 0-29.085-4.888-.779-9.897-1.188-15-1.188h-180c-5.103 0-10.112.41-15 1.188v29.091c0 27.081-6.305 53.791-18.416 78.013-1.042 2.083-1.584 4.379-1.584 6.708v62h250s0-43.139 0-62.014c0-2.325-.541-4.61-1.581-6.689z" fill="#ff6b6b"/><path d="m300 365.279v-29.091c-4.888-.779-9.897-1.188-15-1.188h-90v177h125v-62c0-2.329-.542-4.626-1.584-6.708-12.111-24.223-18.416-50.932-18.416-78.013z" fill="#e20059"/></g><path d="m195 405c-22.091 0-40-17.909-40-40v-90h80v90c0 22.091-17.909 40-40 40z" fill="#ffcbbc"/><path d="m195 405c22.091 0 40-17.909 40-40v-90h-40z" fill="#f9a58b"/><path d="m70.344 259.999c-38.955.189-70.344-32.038-70.344-70.994 0-4.973 4.032-9.005 9.005-9.005h.995c16.569 0 30-13.431 30-30v-99.161c0-27.379 21.66-50.311 49.034-50.83 28.011-.531 50.966 22.099 50.966 49.991v13.766l-25.91 180.704-3.48 2.485c-11.856 8.467-25.772 12.974-40.266 13.044z" fill="#ff8659"/><path d="m95 165v53.9c0 55.181 44.235 100.781 99.416 101.098 55.407.319 100.584-44.663 100.584-99.998v-55l-100-20z" fill="#ffddce"/><path d="m195 145v174.994c55.14-.001 100-44.854 100-99.994v-55z" fill="#ffcbbc"/><path d="m294.875 125c-2.624-53.019-46.731-95.307-100.459-94.998-53.133.305-96.11 42.597-99.228 94.998l99.812 20z" fill="#ffc178"/><path d="m294.875 125c-2.614-52.826-46.412-94.994-99.875-94.994v114.994z" fill="#ff8659"/><path d="m295 165v-35c0-1.677-.043-3.344-.125-5h-199.75c-.082 1.656-.125 3.323-.125 5v35z" fill="#ff6b6b"/><path d="m195 125v40h100v-35c0-1.677-.043-3.344-.125-5z" fill="#e20059"/></g></g></svg>