<?xml version="1.0" encoding="iso-8859-1"?>
<!-- Generator: Adobe Illustrator 19.0.0, SVG Export Plug-In . SVG Version: 6.00 Build 0)  -->
<svg version="1.1" id="Capa_1" xmlns="http://www.w3.org/2000/svg" xmlns:xlink="http://www.w3.org/1999/xlink" x="0px" y="0px"
	 viewBox="0 0 472.19 472.19" style="enable-background:new 0 0 472.19 472.19;" xml:space="preserve">
<g>
	<path style="fill:#EAE8CA;" d="M208.095,240.19l48-10.4v-24.8c-8-2.4-16-4-24-4v-34.4l0,0c-4,1.6-7.2,2.4-11.2,3.2h-0.8
		c-1.6,0-4,0.8-5.6,0.8h-0.8c-4,0-7.2,0-11.2,0h-0.8c-1.6,0-4-0.8-5.6-0.8h-0.8c-4-0.8-7.2-2.4-11.2-3.2l0,0v34.4c-8,0-16,1.6-24,4
		v24.8L208.095,240.19z"/>
	<path style="fill:#EAE8CA;" d="M196.095,169.79c1.6,0,4,0.8,5.6,0.8h0.8c4,0,7.2,0,11.2,0h0.8c1.6,0,4-0.8,5.6-0.8h0.8
		c4-0.8,7.2-2.4,11.2-3.2c3.2-1.6,7.2-3.2,10.4-5.6c28.8-20,45.6-36.8,45.6-72v-4l-56-28.8l-104,18.4c0,1.6,0,4,0,5.6v8
		c0,4,0,8,0.8,12c0,1.6,0.8,3.2,0.8,4.8s0.8,4,1.6,5.6s1.6,3.2,1.6,5.6c0.8,1.6,0.8,2.4,1.6,4s1.6,4,3.2,5.6
		c0.8,0.8,0.8,2.4,1.6,3.2c1.6,1.6,2.4,4,4,5.6c0.8,0.8,1.6,1.6,1.6,2.4c1.6,1.6,3.2,4,5.6,5.6c0.8,0.8,1.6,1.6,1.6,1.6
		c2.4,1.6,4,4,6.4,5.6c0.8,0,0.8,0.8,1.6,0.8c2.4,2.4,5.6,4,8.8,6.4c1.6,0.8,3.2,2.4,4,3.2c3.2,2.4,6.4,4,10.4,5.6s7.2,2.4,11.2,3.2
		C195.295,169.79,196.095,169.79,196.095,169.79z"/>
</g>
<path style="fill:#2060A1;" d="M288.095,212.99c-9.6-4.8-20-8-32-9.6v1.6v24.8l-48,10.4l-48-10.4v-24.8v-1.6
	c-12,1.6-22.4,5.6-32,9.6v3.2v70.4c0,9.6,10.4,17.6,24,17.6h112c13.6,0,24-8,24-17.6v-6.4v-56V212.99z"/>
<path style="fill:#E8B408;" d="M157.695,17.79c-4,3.2-8,7.2-12,12c0,0.8-0.8,0.8-0.8,1.6c-1.6,1.6-2.4,3.2-4,4.8
	c-0.8,0.8-0.8,1.6-1.6,2.4c-0.8,1.6-1.6,3.2-2.4,4.8c-0.8,0.8-0.8,1.6-1.6,3.2s-0.8,2.4-1.6,4c0,0.8-0.8,1.6-0.8,2.4v0.8
	c-0.8,1.6-0.8,3.2-1.6,4c0,0.8-0.8,1.6-0.8,2.4c-0.8,1.6-0.8,3.2-0.8,5.6c0,0.8,0,1.6-0.8,2.4c0,1.6-0.8,4-0.8,5.6v0.8l104-18.4
	l56,28v-4c0-45.6-38.4-83.2-85.6-80c-2.4,0-4.8,0.8-8,0.8c-0.8,0-1.6,0-2.4,0.8c-1.6,0-3.2,0.8-4.8,0.8c-0.8,0-2.4,0.8-3.2,0.8
	c-1.6,0-2.4,0.8-4,1.6c-0.8,0.8-2.4,0.8-3.2,1.6c-0.8,0.8-2.4,0.8-3.2,1.6s-2.4,0.8-3.2,1.6s-1.6,0.8-3.2,1.6
	c-1.6,0.8-2.4,1.6-3.2,2.4c-0.8,0.8-1.6,0.8-2.4,1.6C160.095,15.39,159.295,16.99,157.695,17.79L157.695,17.79L157.695,17.79z"/>
<path style="fill:#EAE8CA;" d="M160.095,390.59v1.6h109.6l-1.6-4.8c-8-27.2-7.2-56.8,0.8-84c-0.8,0.8-3.2,0.8-4.8,0.8h-112
	c-2.4,0-4,0-5.6-0.8c8,28,7.2,59.2-2.4,87.2L160.095,390.59L160.095,390.59z"/>
<path style="fill:#E8B408;" d="M159.295,148.99c-2.4-1.6-4.8-4-6.4-5.6c-0.8-0.8-1.6-1.6-1.6-1.6c-1.6-1.6-4-3.2-5.6-5.6
	c-0.8-0.8-1.6-1.6-1.6-2.4c-1.6-1.6-3.2-3.2-4-5.6c-0.8-0.8-1.6-2.4-1.6-3.2c-0.8-1.6-2.4-3.2-3.2-5.6c-0.8-1.6-0.8-2.4-1.6-4
	s-1.6-3.2-1.6-5.6c-0.8-1.6-0.8-4-1.6-5.6c0-1.6-0.8-3.2-0.8-4.8c-1.6-2.4-1.6-6.4-1.6-11.2v-8c0-1.6,0-4,0-5.6l0,0l0,0
	c0-0.8,0-2.4,0-3.2c0-0.8,0-1.6,0-2.4s0-0.8,0-1.6l0,0c0-1.6,0.8-2.4,0.8-4c0-0.8,0.8-1.6,0.8-2.4l0,0c0,0,0,0,0-0.8
	c0.8-1.6,0.8-3.2,1.6-5.6c0-0.8,0.8-1.6,0.8-2.4c0.8-1.6,1.6-3.2,2.4-5.6c0,0,0-0.8,0.8-0.8l0,0c0,0,0-0.8,0.8-0.8
	c0.8-1.6,1.6-2.4,2.4-4l0.8-0.8c0.8-1.6,1.6-3.2,3.2-4.8c0-0.8,0.8-0.8,0.8-1.6c0.8-1.6,1.6-3.2,3.2-4.8c0.8-0.8,0.8-0.8,1.6-1.6
	c0.8-1.6,2.4-2.4,3.2-4l0.8-0.8c0.8-0.8,2.4-2.4,3.2-3.2s0.8-0.8,1.6-1.6c-4-0.8-8-1.6-12.8-1.6c-31.2,0-56,24.8-56,56v120
	c32,0,60.8-13.6,81.6-35.2l0,0c-3.2-2.4-5.6-4-8.8-6.4C160.095,149.79,160.095,149.79,159.295,148.99z"/>
<path style="fill:#2060A1;" d="M104.095,472.19L104.095,472.19c0-25.6,8.8-60,24.8-80h143.2l7.2,8.8c16,20,24.8,45.6,24.8,71.2l0,0
	H104.095z"/>
<g>
	<path style="opacity:0.24;fill:#222426;enable-background:new    ;" d="M169.695,156.99c-3.2-2.4-5.6-4-8.8-6.4
		c-0.8,0-0.8-0.8-1.6-0.8c-2.4-1.6-4.8-4-6.4-5.6c-0.8-0.8-1.6-1.6-1.6-1.6c-1.6-1.6-4-3.2-5.6-5.6c-0.8-0.8-1.6-1.6-1.6-2.4
		c-1.6-1.6-3.2-3.2-4-5.6c-0.8-0.8-1.6-2.4-1.6-3.2c-0.8-1.6-2.4-3.2-3.2-5.6c-0.8-1.6-0.8-2.4-1.6-4s-1.6-3.2-1.6-5.6
		c-0.8-1.6-0.8-4-1.6-5.6c0-1.6-0.8-3.2-0.8-4.8c-1.6-3.2-1.6-7.2-1.6-12v-8c0-1.6,0-4,0-5.6l0,0c0-0.8,0-2.4,0-3.2
		c0-0.8,0-1.6,0-2.4s0-0.8,0-1.6l0,0c0-1.6,0.8-2.4,0.8-4c0-0.8,0.8-1.6,0.8-2.4l0,0c0,0,0,0,0-0.8c0.8-1.6,0.8-3.2,1.6-5.6
		c0-0.8,0.8-1.6,0.8-2.4c0.8-1.6,1.6-3.2,2.4-5.6c0,0,0-0.8,0.8-0.8l0,0c0,0,0-0.8,0.8-0.8c0.8-1.6,1.6-2.4,2.4-4l0.8-0.8
		c0.8-1.6,1.6-3.2,3.2-4.8c0-0.8,0.8-0.8,0.8-1.6c0.8-1.6,1.6-3.2,3.2-4.8c0.8-0.8,0.8-0.8,1.6-1.6c0.8-1.6,2.4-2.4,3.2-4l0.8-0.8
		c0.8-0.8,2.4-2.4,3.2-3.2s0.8-0.8,1.6-1.6c-2.4-0.8-4-0.8-6.4-1.6l-0.8,0.8l0,0c-4,3.2-8,7.2-12,12c0,0.8-0.8,0.8-0.8,1.6
		c-1.6,1.6-2.4,3.2-4,4.8c-0.8,0.8-0.8,1.6-1.6,2.4c-0.8,1.6-1.6,3.2-2.4,4.8c-0.8,0.8-0.8,1.6-1.6,3.2c-0.8,1.6-0.8,2.4-1.6,4
		c0,0.8-0.8,1.6-0.8,2.4v0.8c-0.8,1.6-0.8,3.2-1.6,4c0,0.8-0.8,1.6-0.8,2.4c-0.8,1.6-0.8,3.2-0.8,5.6c0,0.8,0,1.6-0.8,2.4
		c0,1.6-0.8,4-0.8,5.6v0.8c0,1.6,0,4,0,5.6v8c0,4,0,8,0.8,12c0,1.6,0.8,3.2,0.8,4.8c0,1.6,0.8,4,1.6,5.6s1.6,3.2,1.6,5.6
		c0.8,1.6,0.8,2.4,1.6,4s1.6,4,3.2,5.6c0.8,0.8,0.8,2.4,1.6,3.2c1.6,1.6,2.4,4,4,5.6c0.8,0.8,1.6,1.6,1.6,2.4c1.6,1.6,3.2,4,5.6,5.6
		c0.8,0.8,1.6,1.6,1.6,1.6c2.4,1.6,4,4,6.4,5.6c0.8,0,0.8,0.8,1.6,0.8c2.4,2.4,5.6,4,8.8,6.4c1.6,0.8,3.2,2.4,4,3.2l0,0
		C167.295,159.39,168.095,157.79,169.695,156.99L169.695,156.99z"/>
	<path style="opacity:0.24;fill:#222426;enable-background:new    ;" d="M213.695,184.19
		C213.695,184.19,214.495,184.19,213.695,184.19c2.4,0,4.8-0.8,6.4-0.8h0.8c4-0.8,7.2-2.4,11.2-3.2l0,0v-13.6l0,0
		c-4,1.6-7.2,2.4-11.2,3.2h-0.8c-1.6,0-4,0.8-5.6,0.8h-0.8c-4,0-7.2,0-11.2,0h-0.8c-1.6,0-4-0.8-5.6-0.8h-0.8
		c-4-0.8-7.2-2.4-11.2-3.2l0,0v13.6l0,0c4,1.6,7.2,2.4,11.2,3.2h0.8c1.6,0,4,0.8,5.6,0.8h0.8
		C206.495,184.19,209.695,184.19,213.695,184.19z"/>
</g>
<g>
	<polygon style="fill:#BC3131;" points="416.095,104.19 416.095,120.19 344.095,120.19 344.095,104.19 312.095,104.19 
		312.095,152.19 344.095,152.19 344.095,136.19 416.095,136.19 416.095,152.19 448.095,152.19 448.095,104.19 	"/>
	<polygon style="fill:#BC3131;" points="128.095,384.19 128.095,400.19 56.095,400.19 56.095,384.19 24.095,384.19 24.095,432.19 
		56.095,432.19 56.095,416.19 128.095,416.19 128.095,432.19 160.095,432.19 160.095,408.19 160.095,384.19 	"/>
</g>
<g>
	<path style="fill:#EAE8CA;" d="M375.295,120.19h0.8H375.295l-4.8,74.4c-0.8,12-11.2,21.6-24,21.6h-58.4v56l92.8-20
		c11.2-2.4,19.2-12,19.2-23.2v-112c0-7.2-5.6-12.8-12-12.8l0,0c-6.4,0-12,4.8-12,11.2L375.295,120.19z"/>
	<path style="fill:#EAE8CA;" d="M128.095,288.19v-1.6v-70.4c-29.6,28.8-48,79.2-48,120c0,16,0,62.4,8,84.8c2.4,6.4,8,11.2,15.2,11.2
		l0,0c9.6,0,16.8-8,16-16.8l-0.8-20C114.495,372.19,117.695,308.99,128.095,288.19z"/>
</g>
<g>
</g>
<g>
</g>
<g>
</g>
<g>
</g>
<g>
</g>
<g>
</g>
<g>
</g>
<g>
</g>
<g>
</g>
<g>
</g>
<g>
</g>
<g>
</g>
<g>
</g>
<g>
</g>
<g>
</g>
</svg>
