<svg viewBox="0 0 109 24" xmlns="http://www.w3.org/2000/svg" fill-rule="evenodd" clip-rule="evenodd"><path d="M5.334 10.213c.063-1.525.456-2.93 1.117-4.208-1.154 5.6 1.46 12.003 5.808 17.628 2.253-3.43 4.804-9.485.811-15.888-2.633-4.22-2.421-6.517-1.61-7.745-6.362.209-11.46 5.511-11.46 12.016 0 6.309 4.797 11.484 10.893 11.984-3.419-4.322-5.746-9.232-5.559-13.787z" fill="#0044d9"/><path d="M20.93 8.822c.967-.785.705-3.088-1.953-6.416 2.87 2.196 4.729 5.682 4.729 9.611 0 6.112-4.492 11.155-10.312 11.921 3.68-3.107 6.925-9.118 2.296-15.433-3.207-4.372-3.269-7.023-2.795-8.466l.044.006c-.125 1.272.668 3.341 2.128 5.359 2.457 3.404 4.803 4.277 5.864 3.417l-.001.001zm-2.339-1.298c.93 0 1.684-.765 1.684-1.708 0-.944-.754-1.708-1.684-1.708-.931 0-1.685.765-1.685 1.708 0 .944.754 1.708 1.685 1.708z" fill="#fd5f7c"/><path d="M39.477 20.253h-9.064v-16.261h9.07v2.246h-6.45v4.429h6.045v2.227h-6.045v5.106h6.45v2.253h-.006zm9.882 0l-.512-1.715h-.087c-.586.747-1.172 1.259-1.766 1.531-.592.272-1.353.405-2.283.405-1.191 0-2.121-.329-2.788-.981-.668-.652-1.005-1.576-1.005-2.771 0-1.266.462-2.227 1.391-2.873.93-.645 2.346-1 4.242-1.057l2.096-.07v-.658c0-.785-.181-1.373-.543-1.765-.361-.392-.923-.582-1.684-.582-.625 0-1.217.095-1.791.278-.568.183-1.117.405-1.647.658l-.829-1.86c.655-.348 1.378-.614 2.158-.797.78-.183 1.522-.272 2.215-.272 1.541 0 2.707.342 3.493 1.025.786.683 1.179 1.753 1.179 3.214v8.289h-1.84l.001.001zm-3.837-1.778c.935 0 1.685-.266 2.252-.797.568-.531.849-1.272.849-2.227v-1.069l-1.56.07c-1.217.044-2.096.253-2.652.62-.549.367-.829.93-.829 1.683 0 .55.162.975.48 1.272.337.297.818.449 1.46.449v-.001zm12.895-.114c.631 0 1.261-.101 1.884-.297v1.968c-.287.127-.655.234-1.104.316-.449.082-.916.127-1.397.127-2.44 0-3.662-1.303-3.662-3.917v-6.625h-1.653v-1.158l1.778-.955.88-2.601h1.591v2.733h3.456v1.98h-3.456v6.581c0 .633.155 1.095.467 1.398.306.297.712.449 1.217.449l-.001.001zm6.938-2.411c0-.974.231-1.816.699-2.544.467-.721 1.31-1.443 2.533-2.151-.693-.823-1.167-1.519-1.422-2.088-.256-.569-.381-1.158-.381-1.765 0-1.126.399-2.018 1.191-2.67.793-.652 1.859-.981 3.194-.981 1.291 0 2.308.316 3.05.949.736.633 1.111 1.487 1.111 2.563 0 .848-.25 1.614-.742 2.303-.493.69-1.316 1.379-2.471 2.069l3.794 3.714c.592-.791 1.085-1.955 1.478-3.493h2.651c-.511 2.107-1.329 3.822-2.457 5.15l3.299 3.24h-3.324l-1.634-1.614c-.749.607-1.541 1.063-2.384 1.373-.842.31-1.777.462-2.801.462-1.685 0-3.001-.405-3.962-1.215-.942-.797-1.422-1.905-1.422-3.303v.001zm5.528 2.278c1.334 0 2.483-.399 3.431-1.189l-4.198-4.195c-.774.506-1.31.974-1.604 1.417-.293.443-.437.943-.437 1.506 0 .728.256 1.316.761 1.772.506.462 1.191.69 2.047.69v-.001zm-1.634-10.731c0 .468.124.911.367 1.322.244.418.587.854 1.023 1.322.823-.475 1.403-.918 1.74-1.329.331-.411.499-.873.499-1.386 0-.481-.155-.867-.473-1.158-.318-.291-.743-.437-1.267-.437-.579 0-1.035.152-1.378.449-.343.297-.511.709-.511 1.215v.002zm19.806 12.756h-2.601v-16.261h9.045v2.246h-6.451v5.081h6.045v2.259h-6.045v6.675h.007zm8.029-15.559c0-.468.125-.829.38-1.082.25-.253.612-.38 1.079-.38.456 0 .805.127 1.061.38.249.253.38.614.38 1.082 0 .443-.125.797-.38 1.05-.256.253-.606.386-1.061.386-.467 0-.829-.127-1.079-.386s-.38-.607-.38-1.05zm2.733 15.559h-2.577v-12.301h2.577v12.301zm7.298-1.892c.63 0 1.261-.101 1.885-.297v1.968c-.287.127-.655.234-1.105.316-.449.082-.917.127-1.397.127-2.439 0-3.662-1.303-3.662-3.917v-6.625h-1.653v-1.158l1.778-.955.879-2.601h1.592v2.733h3.455v1.98h-3.455v6.581c0 .633.155 1.095.467 1.398.305.297.712.449 1.216.449v.001z" fill="#1d3f5b"/></svg>