<?xml version="1.0" encoding="UTF-8" standalone="no"?>
<!DOCTYPE svg PUBLIC "-//W3C//DTD SVG 1.1//EN" "http://www.w3.org/Graphics/SVG/1.1/DTD/svg11.dtd">
<svg width="100%" height="100%" viewBox="0 0 109 24" version="1.1" xmlns="http://www.w3.org/2000/svg" xmlns:xlink="http://www.w3.org/1999/xlink" xml:space="preserve" xmlns:serif="http://www.serif.com/" style="fill-rule:evenodd;clip-rule:evenodd;stroke-linejoin:round;stroke-miterlimit:2;">
    <path d="M5.334,10.213C5.397,8.688 5.79,7.283 6.451,6.005C5.297,11.605 7.911,18.008 12.259,23.633C14.512,20.203 17.063,14.148 13.07,7.745C10.437,3.525 10.649,1.228 11.461,0C5.098,0.209 0,5.511 0,12.016C0,18.325 4.797,23.5 10.893,24C7.474,19.678 5.147,14.768 5.334,10.213Z" style="fill:rgb(0,68,217);fill-rule:nonzero;"/>
    <path d="M20.93,8.822C21.897,8.037 21.635,5.734 18.977,2.406C21.847,4.602 23.706,8.088 23.706,12.017C23.706,18.129 19.214,23.172 13.394,23.938C17.074,20.831 20.319,14.82 15.69,8.505C12.483,4.133 12.421,1.482 12.895,0.039L12.939,0.045C12.814,1.317 13.607,3.386 15.067,5.404C17.524,8.808 19.87,9.681 20.931,8.821L20.93,8.822ZM18.591,7.524C19.521,7.524 20.275,6.759 20.275,5.816C20.275,4.872 19.521,4.108 18.591,4.108C17.66,4.108 16.906,4.873 16.906,5.816C16.906,6.76 17.66,7.524 18.591,7.524Z" style="fill:rgb(253,95,124);fill-rule:nonzero;"/>
    <path d="M39.477,20.253L30.413,20.253L30.413,3.992L39.483,3.992L39.483,6.238L33.033,6.238L33.033,10.667L39.078,10.667L39.078,12.894L33.033,12.894L33.033,18L39.483,18L39.483,20.253L39.477,20.253ZM49.359,20.253L48.848,18.538L48.761,18.538C48.174,19.285 47.589,19.797 46.995,20.069C46.402,20.341 45.641,20.474 44.712,20.474C43.521,20.474 42.591,20.145 41.923,19.493C41.255,18.841 40.918,17.917 40.918,16.722C40.918,15.456 41.38,14.495 42.31,13.849C43.239,13.204 44.655,12.849 46.552,12.792L48.648,12.722L48.648,12.064C48.648,11.279 48.467,10.691 48.105,10.299C47.743,9.907 47.181,9.717 46.42,9.717C45.796,9.717 45.203,9.812 44.629,9.995C44.062,10.178 43.513,10.4 42.983,10.653L42.153,8.793C42.808,8.445 43.532,8.179 44.311,7.996C45.091,7.813 45.834,7.724 46.526,7.724C48.067,7.724 49.234,8.066 50.019,8.749C50.805,9.432 51.199,10.502 51.199,11.963L51.199,20.252L49.358,20.252L49.359,20.253ZM45.522,18.475C46.458,18.475 47.207,18.209 47.775,17.678C48.343,17.147 48.623,16.406 48.623,15.451L48.623,14.382L47.063,14.452C45.846,14.496 44.967,14.705 44.411,15.072C43.862,15.439 43.582,16.002 43.582,16.755C43.582,17.305 43.745,17.73 44.063,18.027C44.4,18.324 44.88,18.476 45.522,18.476L45.522,18.475ZM58.418,18.361C59.048,18.361 59.678,18.26 60.301,18.064L60.301,20.032C60.014,20.159 59.647,20.266 59.198,20.348C58.749,20.43 58.281,20.475 57.8,20.475C55.361,20.475 54.139,19.172 54.139,16.558L54.139,9.933L52.486,9.933L52.486,8.775L54.264,7.82L55.144,5.219L56.734,5.219L56.734,7.952L60.191,7.952L60.191,9.932L56.734,9.932L56.734,16.513C56.734,17.146 56.89,17.608 57.202,17.911C57.507,18.208 57.913,18.36 58.419,18.36L58.418,18.361ZM65.355,15.95C65.355,14.976 65.586,14.134 66.054,13.406C66.522,12.685 67.364,11.963 68.587,11.255C67.894,10.432 67.421,9.736 67.165,9.167C66.909,8.598 66.784,8.009 66.784,7.402C66.784,6.276 67.184,5.384 67.976,4.732C68.768,4.08 69.835,3.751 71.169,3.751C72.461,3.751 73.477,4.067 74.22,4.7C74.956,5.333 75.331,6.187 75.331,7.263C75.331,8.111 75.081,8.877 74.588,9.566C74.096,10.256 73.272,10.945 72.118,11.635L75.911,15.349C76.504,14.558 76.996,13.394 77.39,11.856L80.041,11.856C79.529,13.963 78.712,15.678 77.583,17.006L80.883,20.246L77.558,20.246L75.924,18.632C75.176,19.239 74.383,19.695 73.541,20.005C72.699,20.315 71.763,20.467 70.739,20.467C69.055,20.467 67.739,20.062 66.778,19.252C65.835,18.455 65.355,17.347 65.355,15.949L65.355,15.95ZM70.883,18.228C72.218,18.228 73.366,17.829 74.315,17.039L70.116,12.844C69.342,13.35 68.806,13.818 68.513,14.261C68.219,14.704 68.076,15.204 68.076,15.767C68.076,16.495 68.331,17.083 68.837,17.539C69.342,18.001 70.028,18.229 70.883,18.229L70.883,18.228ZM69.249,7.497C69.249,7.965 69.374,8.408 69.617,8.819C69.86,9.237 70.203,9.673 70.639,10.141C71.463,9.666 72.043,9.223 72.379,8.812C72.71,8.401 72.879,7.939 72.879,7.426C72.879,6.945 72.723,6.559 72.405,6.268C72.087,5.977 71.663,5.831 71.139,5.831C70.559,5.831 70.103,5.983 69.76,6.28C69.417,6.577 69.249,6.989 69.249,7.495L69.249,7.497ZM89.055,20.253L86.454,20.253L86.454,3.992L95.5,3.992L95.5,6.238L89.048,6.238L89.048,11.319L95.093,11.319L95.093,13.578L89.048,13.578L89.048,20.253L89.055,20.253ZM97.084,4.694C97.084,4.226 97.209,3.865 97.465,3.612C97.714,3.359 98.076,3.232 98.544,3.232C99,3.232 99.349,3.359 99.604,3.612C99.854,3.865 99.985,4.226 99.985,4.694C99.985,5.137 99.86,5.491 99.604,5.744C99.349,5.997 98.999,6.13 98.544,6.13C98.076,6.13 97.714,6.003 97.465,5.744C97.215,5.485 97.084,5.137 97.084,4.694ZM99.817,20.253L97.241,20.253L97.241,7.952L99.817,7.952L99.817,20.253ZM107.116,18.361C107.746,18.361 108.376,18.26 109,18.064L109,20.032C108.713,20.159 108.345,20.266 107.896,20.348C107.447,20.43 106.979,20.475 106.498,20.475C104.06,20.475 102.837,19.172 102.837,16.558L102.837,9.933L101.184,9.933L101.184,8.775L102.962,7.82L103.841,5.219L105.432,5.219L105.432,7.952L108.887,7.952L108.887,9.932L105.432,9.932L105.432,16.513C105.432,17.146 105.588,17.608 105.9,17.911C106.205,18.208 106.611,18.36 107.116,18.36L107.116,18.361Z" style="fill:white;fill-rule:nonzero;"/>
</svg>
